<?xml version="1.0" encoding="UTF-8"?>
<svg width="571px" height="524px" viewBox="0 0 571 524" version="1.1" xmlns="http://www.w3.org/2000/svg" xmlns:xlink="http://www.w3.org/1999/xlink">
    <!-- Generator: sketchtool 64 (101010) - https://sketch.com -->
    <title>0F0D9076-FC2D-4A81-B0B6-7C2F4FBAEEA6</title>
    <desc>Created with sketchtool.</desc>
    <defs>
        <linearGradient x1="49.9565733%" y1="100.064662%" x2="49.9565733%" y2="0.0319548872%" id="linearGradient-1">
            <stop stop-color="#FFFFFF" stop-opacity="0.6" offset="0%"></stop>
            <stop stop-color="#FFFFFF" stop-opacity="0" offset="100%"></stop>
        </linearGradient>
    </defs>
    <g id="Home" stroke="none" stroke-width="1" fill="none" fill-rule="evenodd">
        <g transform="translate(-583.000000, -1738.000000)" id="a/illustration/home/process">
            <g transform="translate(583.000000, 1738.000000)">
                <g id="Group-98" transform="translate(42.410072, 34.870504)">
                    <g id="Set_Up">
                        <path d="M101.59441,47.6767321 L88.8055869,47.6767321 L88.8055869,6.65018796 C88.8055869,3.06931752 91.6702832,0.204621168 95.2511537,0.204621168 L95.2511537,0.204621168 C98.8320241,0.204621168 101.69672,3.06931752 101.69672,6.65018796 L101.69672,47.6767321 L101.59441,47.6767321 Z" id="Path" stroke="#FFFFFF" stroke-width="0.5" fill="#0C0E13" fill-rule="nonzero" stroke-linecap="round" stroke-linejoin="round"></path>
                        <path d="M266.723692,191.627724 L38.5710902,191.627724 C34.3763562,191.627724 31.1024175,188.251474 31.1024175,184.159051 L31.1024175,42.9704453 C31.1024175,38.7757113 34.4786668,35.5017726 38.5710902,35.5017726 L266.723692,35.5017726 C270.918426,35.5017726 274.192365,38.8780219 274.192365,42.9704453 L274.192365,184.159051 C274.192365,188.251474 270.816116,191.627724 266.723692,191.627724 Z" id="Path" stroke="#FFFFFF" stroke-width="0.5" fill="#0C0E13" fill-rule="nonzero" stroke-linecap="round" stroke-linejoin="round"></path>
                        <g id="Group" transform="translate(59.340139, 272.146153)" fill="#0C0E13" fill-rule="nonzero" stroke="#FFFFFF" stroke-linecap="round" stroke-linejoin="round" stroke-width="0.5">
                            <rect id="Rectangle" x="0.306931752" y="0.51155292" width="70.4919924" height="169.630948"></rect>
                            <rect id="Rectangle" x="0.306931752" y="0.51155292" width="17.8020416" height="169.630948"></rect>
                        </g>
                        <g id="Group" transform="translate(390.826431, 272.146153)" fill="#0C0E13" fill-rule="nonzero" stroke="#FFFFFF" stroke-linecap="round" stroke-linejoin="round" stroke-width="0.5">
                            <rect id="Rectangle" x="0.409242336" y="0.51155292" width="94.5349796" height="132.185274"></rect>
                            <rect id="Rectangle" x="0.409242336" y="0.51155292" width="23.9406766" height="132.185274"></rect>
                        </g>
                        <g id="Group" transform="translate(0.000000, 173.927993)" fill="#0C0E13" fill-rule="nonzero" stroke="#FFFFFF" stroke-linecap="round" stroke-linejoin="round" stroke-width="0.5">
                            <path d="M186.205263,101.59441 L39.0826431,101.59441 C35.2971515,101.59441 31.9209022,99.2412664 30.5908646,95.7627066 L0.613863504,16.472004 C-0.51155292,13.4026865 0.102310584,9.92412664 2.14852226,7.36636205 L6.54787737,2.14852226 L145.894893,7.77560438 C148.554968,7.77560438 150.908111,9.41257372 151.828907,11.8680277 L186.205263,101.59441 Z" id="Path"></path>
                            <path d="M187.023747,94.0234267 L44.1981723,94.0234267 C41.5380971,94.0234267 39.1849537,92.3864573 38.2641584,89.9310033 L6.24094562,6.13863504 C5.1155292,3.27393869 7.26405146,0.306931752 10.2310584,0.306931752 L156.023641,0.306931752 C158.683716,0.306931752 161.036859,1.9439011 161.957654,4.39935511 L192.957761,85.4293376 C194.594731,89.521761 191.525413,94.0234267 187.023747,94.0234267 Z" id="Path"></path>
                            <path d="M93.0003208,64.1487361 L45.3235887,64.1487361 C43.6866194,64.1487361 42.1519606,63.1256303 41.5380971,61.5909715 L23.4291237,14.9373453 C22.8152602,13.3003759 24.0429872,11.4587854 25.7822672,11.4587854 L74.4821051,11.4587854 C75.505211,11.4587854 76.5283168,12.0726489 76.8352486,13.0957547 L95.2511537,60.7724869 C95.9673278,62.3071456 94.7396008,64.1487361 93.0003208,64.1487361 Z" id="Path"></path>
                            <path d="M145.178719,25.8845777 L94.5349796,25.8845777 C93.8188055,25.8845777 93.204942,25.4753354 93.0003208,24.8614719 L88.6009657,13.7096183 C88.1917234,12.5842018 89.010208,11.4587854 90.1356245,11.4587854 L140.779364,11.4587854 C141.495538,11.4587854 142.109401,11.8680277 142.314022,12.4818912 L146.713377,23.6337449 C147.22493,24.7591613 146.406446,25.8845777 145.178719,25.8845777 Z" id="Path"></path>
                            <polygon id="Path" points="143.132507 41.9473394 99.5481982 41.9473394 96.1719489 33.2509398 139.756258 33.2509398"></polygon>
                        </g>
                        <rect id="Rectangle" stroke="#FFFFFF" stroke-width="0.5" fill="#0C0E13" fill-rule="nonzero" stroke-linecap="round" stroke-linejoin="round" x="57.293927" y="101.389789" width="49.1090803" height="59.4424493"></rect>
                        <rect id="Rectangle" stroke="#FFFFFF" stroke-width="0.5" fill="#0C0E13" fill-rule="nonzero" stroke-linecap="round" stroke-linejoin="round" x="45.1189675" y="49.2113909" width="16.1650723" height="8.9010208"></rect>
                        <path d="M225.697148,83.9969894 L80.2114978,83.9969894 C77.2444909,83.9969894 74.8913475,81.643846 74.8913475,78.6768391 L74.8913475,78.6768391 C74.8913475,75.7098321 77.2444909,73.3566887 80.2114978,73.3566887 L225.594838,73.3566887 C228.561845,73.3566887 230.914988,75.7098321 230.914988,78.6768391 L230.914988,78.6768391 C231.017299,81.5415354 228.561845,83.9969894 225.697148,83.9969894 Z" id="Path" stroke="#FFFFFF" stroke-width="0.5" fill="#0C0E13" fill-rule="nonzero" stroke-linecap="round" stroke-linejoin="round"></path>
                        <rect id="Rectangle" stroke="#FFFFFF" stroke-width="0.5" fill="#0C0E13" fill-rule="nonzero" stroke-linecap="round" stroke-linejoin="round" x="128.706715" y="101.389789" width="49.1090803" height="59.4424493"></rect>
                        <rect id="Rectangle" stroke="#FFFFFF" stroke-width="0.5" fill="#0C0E13" fill-rule="nonzero" stroke-linecap="round" stroke-linejoin="round" x="205.132721" y="101.389789" width="49.1090803" height="59.4424493"></rect>
                        <path d="M417.01794,140.677053 L361.463293,140.677053 C360.235566,140.677053 359.21246,139.653947 359.21246,138.42622 L359.21246,75.0959686 C359.21246,73.8682416 360.235566,72.8451358 361.463293,72.8451358 L417.01794,72.8451358 C418.245667,72.8451358 419.268773,73.8682416 419.268773,75.0959686 L419.268773,138.42622 C419.268773,139.653947 418.245667,140.677053 417.01794,140.677053 Z" id="Path" stroke="#FFFFFF" stroke-width="0.5" fill="#0C0E13" fill-rule="nonzero" stroke-linecap="round" stroke-linejoin="round"></path>
                        <g id="Group" transform="translate(91.056420, 14.323482)" fill="#0C0E13" fill-rule="nonzero" stroke="#FFFFFF" stroke-linecap="round" stroke-linejoin="round" stroke-width="0.5">
                            <path d="M44.1981723,59.8516916 L36.1156361,64.8649102 L0.818484672,7.98022555 C-0.51155292,5.93401387 0.204621168,3.1716281 2.25083285,1.9439011 L2.86469635,1.53465876 C4.91090803,0.204621168 7.6732938,0.920795256 8.9010208,2.96700693 L44.1981723,59.8516916 Z" id="Path"></path>
                            <circle id="Oval" cx="54.6338518" cy="90.6471774" r="47.9836639"></circle>
                            <path d="M94.432669,63.8418044 L32.1255234,63.8418044 L32.1255234,133.003759 C38.8780219,136.58463 46.4490051,138.630841 54.6338518,138.630841 C81.1322931,138.630841 102.617516,117.145619 102.617516,90.6471774 C102.617516,80.7230507 99.6505088,71.5150982 94.432669,63.8418044 Z" id="Path"></path>
                        </g>
                        <g id="Group" transform="translate(425.612029, 120.726489)" stroke="#FFFFFF" stroke-linecap="round" stroke-linejoin="round" stroke-width="0.5">
                            <polyline id="Path" points="0.818484672 5.42246095 9.92412664 14.5281029 22.0990861 2.35314343 34.5809774 14.8350347 46.0397628 3.27393869"></polyline>
                            <circle id="Oval" fill="#0C0E13" fill-rule="nonzero" cx="22.4060179" cy="2.86469635" r="1.9439011"></circle>
                            <circle id="Oval" fill="#0C0E13" fill-rule="nonzero" cx="46.3466945" cy="2.86469635" r="1.9439011"></circle>
                            <circle id="Oval" fill="#0C0E13" fill-rule="nonzero" cx="10.0264372" cy="14.3234818" r="1.9439011"></circle>
                            <circle id="Oval" fill="#0C0E13" fill-rule="nonzero" cx="34.4786668" cy="14.3234818" r="1.9439011"></circle>
                        </g>
                        <g id="Group" transform="translate(368.318102, 106.403007)" stroke="#FFFFFF" stroke-linecap="round" stroke-linejoin="round" stroke-width="0.5">
                            <path d="M58.3170329,54.838473 L3.1716281,54.838473 C1.9439011,54.838473 0.920795256,53.8153672 0.920795256,52.5876402 L0.920795256,2.35314343 C0.920795256,1.12541642 1.9439011,0.102310584 3.1716281,0.102310584 L58.3170329,0.102310584 C59.5447599,0.102310584 60.5678657,1.12541642 60.5678657,2.35314343 L60.5678657,52.5876402 C60.5678657,53.8153672 59.5447599,54.838473 58.3170329,54.838473 Z" id="Path" fill="#0C0E13" fill-rule="nonzero"></path>
                            <path d="M52.6899507,44.1981723 L33.9671139,44.1981723 C32.7393869,44.1981723 31.716281,43.1750664 31.716281,41.9473394 L31.716281,12.9934442 C31.716281,11.7657172 32.7393869,10.7426113 33.9671139,10.7426113 L52.6899507,10.7426113 C53.9176777,10.7426113 54.9407836,11.7657172 54.9407836,12.9934442 L54.9407836,41.9473394 C54.9407836,43.1750664 53.9176777,44.1981723 52.6899507,44.1981723 Z" id="Path" fill="#0C0E13" fill-rule="nonzero"></path>
                            <g transform="translate(11.254164, 10.231058)" id="Path">
                                <line x1="1.9439011" y1="1.84159051" x2="11.9703383" y2="1.84159051"></line>
                                <line x1="1.9439011" y1="5.32015037" x2="7.05943029" y2="5.32015037"></line>
                                <line x1="1.9439011" y1="8.79871022" x2="11.9703383" y2="8.79871022"></line>
                                <line x1="1.9439011" y1="12.8911336" x2="9.82181606" y2="12.8911336"></line>
                                <polyline points="1.63696934 0.51155292 0.204621168 1.84159051 1.53465876 3.1716281"></polyline>
                                <polyline points="10.4356796 11.3564748 11.8680277 12.788823 10.6403007 14.01655"></polyline>
                                <line x1="1.9439011" y1="21.7921544" x2="11.9703383" y2="21.7921544"></line>
                                <line x1="1.9439011" y1="25.2707142" x2="7.05943029" y2="25.2707142"></line>
                                <line x1="1.9439011" y1="28.7492741" x2="11.9703383" y2="28.7492741"></line>
                                <line x1="1.9439011" y1="32.8416975" x2="9.82181606" y2="32.8416975"></line>
                                <polyline points="1.63696934 20.3598062 0.204621168 21.7921544 1.53465876 23.122192"></polyline>
                                <polyline points="10.4356796 31.3070387 11.8680277 32.7393869 10.6403007 33.9671139"></polyline>
                            </g>
                            <g transform="translate(34.785599, 14.323482)" id="Path">
                                <line x1="0.51155292" y1="1.02310584" x2="1.02310584" y2="1.02310584"></line>
                                <line x1="3.1716281" y1="1.02310584" x2="14.7327241" y2="1.02310584" stroke-dasharray="1.0253,2.0506"></line>
                                <line x1="15.7558299" y1="1.02310584" x2="16.2673829" y2="1.02310584"></line>
                            </g>
                            <g transform="translate(34.785599, 20.462117)" id="Path">
                                <line x1="0.51155292" y1="0.716174088" x2="1.02310584" y2="0.716174088"></line>
                                <line x1="3.37624927" y1="0.716174088" x2="9.10564197" y2="0.716174088" stroke-dasharray="1.1234,2.2469"></line>
                                <line x1="10.2310584" y1="0.716174088" x2="10.7426113" y2="0.716174088"></line>
                            </g>
                            <g transform="translate(34.785599, 17.392799)" id="Path">
                                <line x1="0.51155292" y1="0.920795256" x2="1.02310584" y2="0.920795256"></line>
                                <line x1="2.76238577" y1="0.920795256" x2="7.05943029" y2="0.920795256" stroke-dasharray="0.83,1.6599"></line>
                                <line x1="7.87791497" y1="0.920795256" x2="8.38946789" y2="0.920795256"></line>
                            </g>
                            <g transform="translate(34.785599, 25.577646)" id="Path">
                                <line x1="0.51155292" y1="0.818484672" x2="1.02310584" y2="0.818484672"></line>
                                <line x1="3.1716281" y1="0.818484672" x2="11.4587854" y2="0.818484672" stroke-dasharray="1.0203,2.0407"></line>
                                <line x1="12.5842018" y1="0.818484672" x2="13.0957547" y2="0.818484672"></line>
                            </g>
                            <g transform="translate(34.785599, 28.646964)" id="Path">
                                <line x1="0.51155292" y1="1.22772701" x2="1.02310584" y2="1.22772701"></line>
                                <line x1="2.76238577" y1="1.22772701" x2="7.05943029" y2="1.22772701" stroke-dasharray="0.8393,1.6786"></line>
                                <line x1="7.98022555" y1="1.22772701" x2="8.49177847" y2="1.22772701"></line>
                            </g>
                            <g transform="translate(34.785599, 32.739387)" id="Path">
                                <line x1="0.51155292" y1="0.51155292" x2="1.02310584" y2="0.51155292"></line>
                                <line x1="2.86469635" y1="0.51155292" x2="9.82181606" y2="0.51155292" stroke-dasharray="0.8542999999999999,1.7086"></line>
                                <line x1="10.6403007" y1="0.51155292" x2="11.1518537" y2="0.51155292"></line>
                            </g>
                        </g>
                        <g id="Group" transform="translate(310.001069, 57.293927)" fill="#0C0E13" fill-rule="nonzero" stroke="#FFFFFF" stroke-linecap="round" stroke-linejoin="round" stroke-width="0.5">
                            <line x1="0.409242336" y1="0.204621168" x2="3.88780219" y2="3.78549161" id="Path"></line>
                            <line x1="12.4818912" y1="12.2772701" x2="15.9604511" y2="15.8581405" id="Path"></line>
                            <line x1="0.409242336" y1="15.8581405" x2="3.88780219" y2="12.2772701" id="Path"></line>
                            <line x1="12.4818912" y1="3.78549161" x2="15.9604511" y2="0.204621168" id="Path"></line>
                        </g>
                        <g id="Group" transform="translate(12.277270, 318.185916)" stroke="#3821D1" stroke-linecap="round" stroke-linejoin="round" stroke-width="0.5">
                            <line x1="0.716174088" y1="0.409242336" x2="4.19473394" y2="3.88780219" id="Path"></line>
                            <line x1="12.788823" y1="12.4818912" x2="16.2673829" y2="15.9604511" id="Path"></line>
                            <line x1="0.716174088" y1="15.9604511" x2="4.19473394" y2="12.4818912" id="Path"></line>
                            <line x1="12.788823" y1="3.88780219" x2="16.2673829" y2="0.409242336" id="Path"></line>
                        </g>
                        <polygon id="Rectangle" stroke="#3821D1" stroke-width="0.5" stroke-linecap="round" stroke-linejoin="round" transform="translate(459.676379, 97.059411) rotate(45.000000) translate(-459.676379, -97.059411) " points="456.504781 93.8878137 462.847977 93.8878137 462.847977 100.231009 456.504781 100.231009"></polygon>
                        <g id="Group" transform="translate(245.545402, 48.085974)" stroke="#FFFFFF" stroke-linecap="round" stroke-linejoin="round" stroke-width="0.5">
                            <line x1="0.102310584" y1="1.33003759" x2="14.2211712" y2="1.33003759" id="Path"></line>
                            <line x1="0.102310584" y1="7.16174088" x2="14.2211712" y2="7.16174088" id="Path"></line>
                            <line x1="0.102310584" y1="12.9934442" x2="14.2211712" y2="12.9934442" id="Path"></line>
                        </g>
                        <polygon id="Path" stroke="#FFFFFF" stroke-width="0.5" fill="#0C0E13" fill-rule="nonzero" stroke-linecap="round" stroke-linejoin="round" points="54.7361624 197.766359 47.7790427 223.548626 80.2114978 223.344005"></polygon>
                        <line x1="54.4292307" y1="252.707142" x2="138.528531" y2="252.707142" id="Path" stroke="#FFFFFF" stroke-width="0.5" stroke-linecap="round" stroke-linejoin="round"></line>
                        <rect id="Rectangle" fill="url(#linearGradient-1)" fill-rule="nonzero" opacity="0.2" x="390.928741" y="191.218481" width="94.9442219" height="81.643846"></rect>
                        <g id="Group" transform="translate(419.473394, 211.782909)" stroke="#FFFFFF" stroke-linecap="round" stroke-linejoin="round" stroke-width="0.5">
                            <polygon id="Path" points="19.0297686 0.716174088 0.818484672 31.5116599 19.0297686 34.171735"></polygon>
                            <polygon id="Path" points="19.0297686 0.716174088 37.2410526 31.5116599 19.0297686 34.171735"></polygon>
                        </g>
                        <line x1="372.308215" y1="83.1785048" x2="406.070708" y2="83.1785048" id="Path" stroke="#FFFFFF" stroke-width="0.5" stroke-linecap="round" stroke-linejoin="round"></line>
                        <line x1="372.308215" y1="91.0564197" x2="406.070708" y2="91.0564197" id="Path" stroke="#FFFFFF" stroke-width="0.5" stroke-linecap="round" stroke-linejoin="round"></line>
                        <line x1="372.308215" y1="98.9343347" x2="406.070708" y2="98.9343347" id="Path" stroke="#FFFFFF" stroke-width="0.5" stroke-linecap="round" stroke-linejoin="round"></line>
                        <g id="Group" transform="translate(218.944650, 110.495431)" fill="#0C0E13" fill-rule="nonzero" stroke="#FFFFFF" stroke-linecap="round" stroke-linejoin="round" stroke-width="0.5">
                            <circle id="Oval" cx="10.6403007" cy="3.58087044" r="3.37624927"></circle>
                            <g transform="translate(0.000000, 6.138635)" id="Path">
                                <path d="M8.69639964,1.12541642 C6.24094562,4.50166569 2.04621168,10.4356796 0.409242336,12.788823 C0,13.4026865 -0.102310584,14.2211712 0.102310584,14.9373453 L3.06931752,22.8152602 C3.37624927,23.7360555 4.29704453,24.349919 5.21783978,24.349919 L16.6766252,24.4522296 C17.699731,24.4522296 18.6205263,23.7360555 18.927458,22.8152602 L21.2806015,15.0396558 C21.4852226,14.3234818 21.382912,13.6073077 20.9736697,12.9934442 L12.4818912,1.22772701 C11.561096,-0.102310584 9.61719489,-0.102310584 8.69639964,1.12541642 Z"></path>
                                <path d="M11.7657172,24.349919 L8.9010208,24.349919 L9.20795256,15.6535193 C8.59408905,15.3465876 8.18484672,14.7327241 7.98022555,13.9142394 C7.6732938,12.4818912 8.59408905,11.1518537 10.0264372,10.9472325 C11.4587854,10.6403007 12.788823,11.561096 12.9934442,12.9934442 C13.1980653,14.1188606 12.6865124,15.1419664 11.7657172,15.6535193 L11.7657172,24.349919 Z"></path>
                                <path d="M18.3135945,31.8185916 L18.3135945,29.1585164 C18.3135945,27.4192365 16.9835569,26.0891989 15.244277,26.0891989 L6.75249854,25.9868883 C5.01321861,25.9868883 3.68318102,27.3169259 3.68318102,29.0562058 L3.68318102,31.716281 C3.68318102,33.455561 5.01321861,34.7855985 6.75249854,34.7855985 L15.244277,34.8879091 C16.8812464,34.8879091 18.2112839,33.5578715 18.3135945,31.8185916 Z"></path>
                            </g>
                        </g>
                    </g>
                    <g id="Layer_4" transform="translate(62.409456, 99.241266)">
                        <g id="Group" transform="translate(311.024175, 315.116599)" fill-rule="nonzero">
                            <path d="M1.12541642,2.35314343 C1.12541642,2.35314343 0.716174088,7.05943029 1.12541642,8.38946789 C1.43234818,9.51488431 2.5577646,11.561096 2.86469635,12.5842018 C3.68318102,15.6535193 4.39935511,25.0660931 4.39935511,25.0660931 L6.75249854,25.4753354 L7.16174088,16.1650723 L11.2541642,21.7921544 C11.2541642,21.7921544 14.8350347,27.7261683 20.3598062,28.7492741 C25.7822672,29.7723799 31.2047281,30.0793117 31.1024175,27.9307894 C31.0001069,25.7822672 23.2245026,17.699731 23.2245026,17.699731 L11.3564748,6.34325621 L9.20795256,2.14852226 L1.12541642,2.35314343 Z" id="Path" stroke="#FFFFFF" stroke-width="0.5" fill="#0C0E13" stroke-linecap="round" stroke-linejoin="round"></path>
                            <path d="M6.13863504,3.68318102 C6.13863504,3.68318102 9.20795256,13.4026865 12.2772701,17.1881781 C15.3465876,20.9736697 15.8581405,21.5875332 18.5182157,22.3037073 C21.0759803,23.0198814 25.9868883,23.122192 25.1684037,20.9736697 C24.349919,18.927458 16.8812464,9.61719489 15.5512088,2.66007518 L5.83170329,0.920795256 L6.13863504,3.68318102 Z" id="Path" fill="#FFFFFF"></path>
                        </g>
                        <g id="Group" transform="translate(240.429872, 320.232128)" fill-rule="nonzero">
                            <path d="M29.4654482,3.27393869 L13.9142394,0.306931752 L9.10564197,10.5379901 C6.65018796,15.7558299 -4.91090803,27.9307894 3.47855985,30.5908646 C11.9703383,33.1486292 19.2343898,23.6337449 19.2343898,23.6337449 L25.8845777,13.4026865 L26.6007518,22.5083285 L28.6469635,22.9175708 C28.6469635,22.9175708 29.7723799,12.3795807 29.8746905,8.9010208 C29.7723799,7.46867263 29.4654482,3.27393869 29.4654482,3.27393869 Z" id="Path" stroke="#FFFFFF" stroke-width="0.5" fill="#0C0E13" stroke-linecap="round" stroke-linejoin="round"></path>
                            <path d="M26.2938201,3.06931752 C26.2938201,3.06931752 21.6898438,14.1188606 17.2904887,18.2112839 C13.9142394,21.2806015 9.10564197,21.4852226 7.87791497,20.8713591 C6.44556679,20.0528745 5.62708212,18.7228369 6.34325621,17.1881781 C7.36636205,15.0396558 8.9010208,11.561096 10.2310584,7.98022555 C12.3795807,2.04621168 13.3003759,0.102310584 13.3003759,0.102310584 L26.2938201,3.06931752 Z" id="Path" fill="#FFFFFF"></path>
                        </g>
                        <path d="M248.81934,137.710046 C248.512408,138.32391 245.852333,137.914667 245.852333,137.914667 C245.852333,137.914667 242.169152,163.185381 242.169152,175.053409 C242.169152,186.921437 250.967862,322.482961 250.967862,322.482961 C250.967862,322.482961 263.961307,326.780005 270.713805,322.482961 C270.713805,322.482961 273.476191,209.020523 274.806229,171.984092" id="Path" stroke="#FFFFFF" stroke-width="0.5" fill="#0C0E13" fill-rule="nonzero" stroke-linecap="round" stroke-linejoin="round"></path>
                        <path d="M266.928314,156.944436 C266.928314,156.944436 270.918426,167.584737 274.703918,171.881781 C274.703918,171.881781 286.776567,252.2979 310.308001,319.925196 C310.308001,319.925196 320.436749,322.176029 326.984626,317.776674 C326.984626,317.776674 306.113267,210.657492 307.647926,177.713484 C309.182585,144.769476 298.746905,135.663834 298.746905,135.663834 L263.347443,138.32391" id="Path" stroke="#FFFFFF" stroke-width="0.5" fill="#0C0E13" fill-rule="nonzero" stroke-linecap="round" stroke-linejoin="round"></path>
                        <path d="M239.709605,112.591312 L224.514421,109.691087 L236.752153,68.7879114 C238.077907,64.1875542 241.341303,60.487267 245.72649,58.2870962 L248.377999,56.9869953 L251.845356,73.588284 L239.709605,112.591312 Z" id="Path" fill="#3821D1" fill-rule="nonzero"></path>
                        <path d="M298.133042,114.076301 L304.78323,115.61096 C309.284895,116.634066 313.479629,112.746264 312.661145,108.244598 L305.192472,65.4787737 C304.578608,61.7955927 301.918533,58.9308964 298.337663,57.9077905 L294.961414,56.9869953 L291.482854,73.9705522 L298.133042,114.076301 Z" id="Path" fill="#3821D1" fill-rule="nonzero"></path>
                        <path d="M262.426648,52.1783978 L247.898545,56.9869953 L249.535514,80.2114978 L248.410098,87.3732387 C247.284681,91.5679726 247.489303,95.2511537 248.71703,99.343577 L250.967862,109.267704 C252.093279,114.178612 251.581726,119.396451 249.535514,124.000428 C247.591613,128.297472 245.34078,134.231486 244.829227,139.449326 L302.839329,140.677053 C301.100049,134.640728 298.439973,127.581298 296.189141,122.261148 C293.938308,116.838687 293.017512,111.006984 293.324444,105.17528 L295.882209,57.293927 L277.977857,52.383019 L262.426648,52.1783978 Z" id="Path" fill="#3821D1" fill-rule="nonzero"></path>
                        <path d="M312.354213,112.643953 L312.354213,112.643953 C313.377319,108.244598 310.614933,103.845243 306.215578,102.924447 L273.680812,96.7858124 L270.509184,109.574635 L302.327776,118.271035 C306.727131,119.703383 311.331107,117.043308 312.354213,112.643953 Z" id="Path" fill="#3821D1" fill-rule="nonzero"></path>
                        <line x1="277.057061" y1="96.888123" x2="285.139598" y2="87.2709281" id="Path" stroke="#FFFFFF" stroke-width="2" stroke-linecap="round" stroke-linejoin="round"></line>
                        <line x1="279.205584" y1="97.9112289" x2="293.426755" y2="100.571304" id="Path" stroke="#FFFFFF" stroke-width="0.5" stroke-linecap="round" stroke-linejoin="round"></line>
                        <line x1="284.730355" y1="113.257816" x2="294.961414" y2="116.531755" id="Path" stroke="#FFFFFF" stroke-width="0.5" stroke-linecap="round" stroke-linejoin="round"></line>
                        <line x1="296.08683" y1="101.082857" x2="303.657813" y2="102.412895" id="Path" stroke="#FFFFFF" stroke-width="0.5" stroke-linecap="round" stroke-linejoin="round"></line>
                        <line x1="291.278233" y1="74.6867263" x2="294.245239" y2="89.521761" id="Path" stroke="#FFFFFF" stroke-width="0.5" stroke-linecap="round" stroke-linejoin="round"></line>
                        <line x1="249.944757" y1="72.3335829" x2="249.535514" y2="80.1091872" id="Path" stroke="#FFFFFF" stroke-width="0.5" stroke-linecap="round" stroke-linejoin="round"></line>
                        <path d="M293.017512,141.90478 C293.017512,141.90478 295.268345,153.670497 302.839329,157.967542" id="Path" stroke="#FFFFFF" stroke-width="0.5" stroke-linecap="round" stroke-linejoin="round"></path>
                        <g id="Group" transform="translate(151.419664, 323.301445)" fill="#0C0E13" fill-rule="nonzero" stroke="#FFFFFF" stroke-linecap="round" stroke-linejoin="round" stroke-width="0.5">
                            <path d="M24.9637825,0.818484672 C24.9637825,0.818484672 17.5974204,5.93401387 9.51488431,6.24094562 C7.16174088,6.34325621 5.32015037,7.05943029 3.99011277,7.98022555 C2.45545402,9.10564197 1.22772701,10.8449219 0.920795256,12.8911336 C0.920795256,12.8911336 -0.409242336,20.0528745 12.5842018,21.894465 L32.6370763,25.3730248 C32.6370763,25.3730248 38.5710902,26.6007518 42.1519606,26.0891989 C49.6206332,24.9637825 47.2674898,18.7228369 47.2674898,18.7228369 C47.2674898,18.7228369 45.5282099,10.7426113 45.2212781,8.38946789 C44.9143464,6.34325621 43.0727558,1.84159051 43.0727558,1.84159051 L24.9637825,0.818484672 Z" id="Path"></path>
                            <path d="M0.920795256,12.2772701 C0.920795256,12.2772701 1.22772701,17.2904887 9.82181606,18.8251474 L34.8879091,22.8152602 C34.8879091,22.8152602 45.8351416,24.349919 47.1651792,18.5182157" id="Path"></path>
                            <path d="M14.1188606,5.52477153 C14.1188606,5.52477153 7.98022555,10.7426113 9.82181606,18.927458" id="Path"></path>
                            <path d="M17.5974204,3.99011277 C17.5974204,3.99011277 16.1650723,4.80859745 16.3696934,7.6732938" id="Path"></path>
                            <path d="M19.6436321,3.27393869 C19.6436321,3.27393869 18.2112839,4.09242336 18.4159051,6.95711971" id="Path"></path>
                            <path d="M21.0759803,2.86469635 C21.0759803,2.86469635 20.3598062,3.78549161 20.666738,6.13863504" id="Path"></path>
                        </g>
                        <g id="Group" transform="translate(66.501880, 328.416975)" fill="#0C0E13" fill-rule="nonzero" stroke="#FFFFFF" stroke-linecap="round" stroke-linejoin="round" stroke-width="0.5">
                            <path d="M24.5545402,0.409242336 C24.5545402,0.409242336 17.1881781,5.52477153 9.10564197,5.83170329 C6.75249854,5.93401387 4.91090803,6.65018796 3.58087044,7.57098321 C2.04621168,8.69639964 0.818484672,10.4356796 0.51155292,12.4818912 C0.51155292,12.4818912 -0.818484672,19.6436321 12.1749595,21.4852226 L32.2278339,24.9637825 C32.2278339,24.9637825 38.1618478,26.1915095 41.7427183,25.6799566 C49.2113909,24.5545402 46.8582475,18.3135945 46.8582475,18.3135945 C46.8582475,18.3135945 45.1189675,10.333369 44.8120358,7.98022555 C44.505104,5.93401387 42.6635135,1.43234818 42.6635135,1.43234818 L24.5545402,0.409242336 Z" id="Path"></path>
                            <path d="M0.51155292,11.8680277 C0.51155292,11.8680277 0.818484672,16.8812464 9.41257372,18.4159051 L34.4786668,22.4060179 C34.4786668,22.4060179 45.4258993,23.9406766 46.7559369,18.1089734" id="Path"></path>
                            <path d="M13.7096183,5.1155292 C13.7096183,5.1155292 7.57098321,10.333369 9.41257372,18.5182157" id="Path"></path>
                            <path d="M17.1881781,3.58087044 C17.1881781,3.58087044 15.7558299,4.39935511 15.9604511,7.26405146" id="Path"></path>
                            <path d="M19.2343898,2.86469635 C19.2343898,2.86469635 17.8020416,3.68318102 18.0066628,6.54787737" id="Path"></path>
                            <path d="M20.666738,2.45545402 C20.666738,2.45545402 19.9505639,3.37624927 20.2574956,5.7293927" id="Path"></path>
                        </g>
                        <path d="M134.231486,193.162383 L135.152281,236.54207 C135.254592,242.885326 136.891561,249.126272 139.858568,254.753354 L173.109508,327.59849 C173.109508,327.59849 183.749809,332.91864 196.2317,327.189248 C196.2317,327.189248 162.98076,239.918319 162.776139,239.713698 L168.812464,180.885112 C170.142501,172.393334 168.403221,163.799245 163.799245,156.535193 L162.162276,153.977429" id="Path" stroke="#FFFFFF" stroke-width="0.5" fill="#0C0E13" fill-rule="nonzero" stroke-linecap="round" stroke-linejoin="round"></path>
                        <path d="M145.38334,174.541856 L140.574742,184.772915 L107.119181,238.383661 C106.198386,239.816009 105.789144,241.555289 105.891454,243.294569 L110.495431,332.202466 C101.389789,335.681026 87.5778599,332.407087 87.5778599,332.407087 L78.3699073,242.783016 C77.8583544,239.202145 78.1652861,235.518964 79.2907026,232.040404 L106.403007,156.944436 L151.726596,156.125951" id="Path" stroke="#FFFFFF" stroke-width="0.5" fill="#0C0E13" fill-rule="nonzero" stroke-linecap="round" stroke-linejoin="round"></path>
                        <polygon id="Rectangle" fill="#FFFFFF" fill-rule="nonzero" transform="translate(109.165818, 49.597255) rotate(-11.016664) translate(-109.165818, -49.597255) " points="100.57148 35.6314572 117.760155 35.6314572 117.760155 63.5630534 100.57148 63.5630534"></polygon>
                        <path d="M111.416226,17.8020416 L108.65384,10.0264372 L86.2478223,14.7327241 L83.4854365,21.2806015 L82.3600201,27.7261683 L84.9177847,43.3796876 C84.9177847,43.6866194 84.9177847,43.9935511 84.9177847,44.3004829 L84.7131635,45.2212781 C84.7131635,45.5282099 84.9177847,45.6305204 85.2247164,45.732831 C86.2478223,45.8351416 88.8055869,45.2212781 90.1356245,44.505104 C90.1356245,44.505104 89.8286927,46.0397628 87.5778599,46.8582475 C86.554754,47.1651792 85.4293376,47.1651792 85.1224059,47.472111 C85.0200953,47.6767321 84.8154741,47.8813533 85.2247164,48.188285 C85.5316482,48.4952168 85.8385799,49.3137015 85.8385799,49.3137015 L86.3501329,52.4853296 C86.3501329,52.4853296 86.3501329,60.1586234 103.129069,52.6899507 C115.304028,47.1651792 111.416226,17.8020416 111.416226,17.8020416 Z" id="Path" fill="#FFFFFF" fill-rule="nonzero"></path>
                        <path d="M82.871573,29.7723799 L79.8022555,38.6734007 C79.4953237,39.594196 80.1091872,40.5149913 81.0299825,40.6173018 L85.0200953,41.0265442 L82.871573,29.7723799 Z" id="Path" fill="#FFFFFF" fill-rule="nonzero"></path>
                        <path d="M84.5085424,28.7492741 C84.5085424,28.7492741 86.9639964,27.0099942 89.9310033,29.0562058" id="Path" stroke="#0C0E13" stroke-linecap="round" stroke-linejoin="round"></path>
                        <path d="M85.6339588,31.1024175 C85.6339588,31.1024175 87.5778599,29.9770011 89.3171398,31.5116599" id="Path" stroke="#0C0E13" stroke-width="0.5" stroke-linecap="round" stroke-linejoin="round"></path>
                        <circle id="Oval" fill="#0C0E13" fill-rule="nonzero" cx="86.1455117" cy="31.8185916" r="1.12541642"></circle>
                        <path d="M162.059965,127.376677 L162.059965,127.376677 C166.35701,125.535087 167.687047,118.782588 166.152388,114.894786 L147.736483,69.9804394 C145.690272,64.9672208 139.960879,62.6140774 135.049971,64.7625997 L135.049971,64.7625997 C130.139063,66.9111219 127.990541,72.6405146 130.139063,77.4491121 L150.70349,122.67039 C152.545081,126.967435 157.76292,129.218268 162.059965,127.376677 Z" id="Path" fill="#3821D1" fill-rule="nonzero"></path>
                        <path d="M100.673615,143.950992 C100.673615,143.950992 100.878236,156.023641 101.492099,160.627617 C101.799031,162.98076 103.231379,165.129283 103.231379,165.129283 C103.231379,165.129283 103.845243,163.390003 103.845243,163.390003 C107.528424,161.855344 110.39312,161.343791 124.818912,162.469207 C152.44277,164.515419 166.254699,161.650723 166.254699,161.650723 C166.254699,161.650723 169.017085,158.888337 165.129283,145.281029 C161.343791,131.776032 153.158944,87.4755493 140.881674,64.8649102 C140.881674,64.8649102 134.026865,58.3170329 109.063083,62.5117668 C84.0993,66.7065007 82.0530883,77.4491121 82.0530883,77.4491121 C82.0530883,77.4491121 101.492099,140.063189 100.673615,143.950992 Z" id="Path" fill="#3821D1" fill-rule="nonzero"></path>
                        <path d="M160.422996,126.14895 C155.92133,106.91456 150.908111,89.010208 144.257923,72.3335829" id="Path" stroke="#FFFFFF" stroke-width="0.5" stroke-linecap="round" stroke-linejoin="round"></path>
                        <path d="M96.4788807,67.2180537 C96.4788807,67.2180537 96.7858124,61.3863504 104.152174,58.3170329 C109.063083,56.2708212 115.508649,55.2477153 119.08952,54.7361624 C121.749595,54.4292307 124.40967,55.7592683 125.432776,58.2147223 C125.944329,59.3401387 126.353571,60.7724869 126.558192,62.6140774 L96.4788807,67.2180537 Z" id="Path" fill="#3821D1" fill-rule="nonzero"></path>
                        <g id="Group" transform="translate(0.000000, 86.963996)" fill="#FFFFFF" fill-rule="nonzero">
                            <path d="M15.7558299,8.79871022 L10.0264372,6.65018796 C9.41257372,6.44556679 8.79871022,6.24094562 8.18484672,6.24094562 L1.84159051,5.42246095 C1.12541642,5.32015037 0.716174088,4.60397628 0.818484672,3.88780219 L0.818484672,3.88780219 C0.920795256,3.1716281 1.53465876,2.76238577 2.25083285,2.86469635 L8.59408905,3.37624927 C9.41257372,3.47855985 10.2310584,3.58087044 11.0495431,3.88780219 L15.244277,5.42246095 L15.7558299,8.79871022 Z" id="Path"></path>
                            <path d="M16.5743146,12.788823 L10.6403007,11.3564748 C10.0264372,11.2541642 9.41257372,11.1518537 8.79871022,11.1518537 L2.45545402,11.0495431 C1.73927993,10.9472325 1.22772701,10.4356796 1.33003759,9.71950548 L1.33003759,9.71950548 C1.33003759,9.00333139 1.9439011,8.49177847 2.66007518,8.49177847 L9.00333139,8.2871573 C9.82181606,8.2871573 10.6403007,8.2871573 11.4587854,8.49177847 L15.8581405,9.51488431 L16.5743146,12.788823 Z" id="Path"></path>
                            <path d="M16.8812464,16.5743146 L10.9472325,15.1419664 C10.333369,15.0396558 9.71950548,14.9373453 9.10564197,14.9373453 L2.76238577,14.8350347 C2.04621168,14.7327241 1.53465876,14.2211712 1.63696934,13.5049971 L1.63696934,13.5049971 C1.63696934,12.788823 2.25083285,12.2772701 2.96700693,12.2772701 L9.31026314,12.0726489 C10.1287478,12.0726489 10.9472325,12.0726489 11.7657172,12.2772701 L16.1650723,13.3003759 L16.8812464,16.5743146 Z" id="Path"></path>
                            <path d="M18.0066628,20.666738 L12.0726489,19.2343898 C11.4587854,19.1320792 10.8449219,19.0297686 10.2310584,19.0297686 L3.88780219,18.927458 C3.1716281,18.8251474 2.66007518,18.3135945 2.76238577,17.5974204 L2.76238577,17.5974204 C2.76238577,16.8812464 3.37624927,16.3696934 4.09242336,16.3696934 L10.4356796,16.1650723 C11.2541642,16.1650723 12.0726489,16.1650723 12.8911336,16.3696934 L17.2904887,17.3927993 L18.0066628,20.666738 Z" id="Path"></path>
                            <path d="M38.366469,16.1650723 L27.6238577,10.9472325 L15.244277,5.42246095 L12.2772701,19.2343898 L16.9835569,21.2806015 C19.9505639,22.5083285 23.122192,23.0198814 26.3961307,22.7129496 L33.9671139,25.8845777 L38.366469,16.1650723 Z" id="Path"></path>
                            <path d="M20.5644274,9.92412664 L20.3598062,8.08253613 C20.2574956,7.16174088 19.8482533,6.24094562 19.1320792,5.52477153 C17.9043522,4.29704453 15.9604511,2.04621168 16.5743146,0.613863504 C16.5743146,0.613863504 17.1881781,-0.818484672 18.6205263,0.818484672 C20.0528745,2.35314343 22.0990861,3.47855985 22.9175708,4.09242336 C23.9406766,4.80859745 28.0331,12.8911336 28.0331,12.8911336 L20.5644274,9.92412664 Z" id="Path"></path>
                        </g>
                        <path d="M33.6601821,100.059751 C26.1915095,103.33369 26.293783,115.71327 26.293783,115.71327 L63.3302515,135.254592 C67.7296066,137.505425 73.049757,136.175387 75.7098321,131.980653 L75.7098321,131.980653 C78.7791497,127.172056 76.9375591,120.726489 71.8220299,118.271035 L33.6601821,100.059751 Z" id="Path" fill="#3821D1" fill-rule="nonzero"></path>
                        <path d="M63.6371832,135.561524 C67.7296066,137.812357 72.9474464,136.482319 75.505211,132.492206 L90.2379351,109.267704 L99.6505088,94.432669 L82.6669518,75.4029004 L59.8516916,123.795807 C57.8054799,128.195162 59.4424493,133.310691 63.6371832,135.561524 L63.6371832,135.561524 Z" id="Path" fill="#3821D1" fill-rule="nonzero"></path>
                        <line x1="100.980546" y1="92.0795256" x2="90.2379351" y2="109.267704" id="Path" stroke="#FFFFFF" stroke-width="0.5" stroke-linecap="round" stroke-linejoin="round"></line>
                        <path d="M118.884899,9.61719489 L118.884899,9.61719489 C114.792475,3.99011277 108.142287,0.716174088 101.287478,0.818484672 C99.343577,1.33003759 97.0927442,2.14852226 95.1488431,3.27393869 C95.1488431,3.27393869 95.9673278,2.25083285 97.2973654,1.22772701 L96.888123,1.33003759 C91.7725938,2.14852226 87.2709281,5.01321861 84.4062318,9.31026314 C82.0530883,12.788823 81.7461566,17.1881781 83.4854365,21.0759803 L83.4854365,21.1782909 C97.6042971,10.8449219 108.756151,13.6073077 108.756151,13.6073077 C99.6505088,12.788823 93.1026314,16.5743146 93.1026314,16.5743146 C93.0003208,18.6205263 91.4656621,23.2245026 91.4656621,23.2245026 C93.8188055,24.2476084 94.3303584,26.2938201 94.3303584,26.2938201 L95.5580854,32.0232128 L95.4557748,35.8087044 C95.3534643,38.4687796 94.1257372,41.0265442 91.977215,42.6635135 L91.977215,42.6635135 C91.977215,42.6635135 90.8517986,42.04965 89.6240716,41.8450288 C88.8055869,41.6404077 86.2478223,41.4357865 86.2478223,41.4357865 C85.1224059,41.3334759 84.0993,42.1519606 83.8946789,43.1750664 L83.4854365,44.7097252 C83.4854365,44.7097252 88.1917234,44.1981723 89.9310033,44.1981723 C91.0564197,44.1981723 91.5679726,44.505104 91.5679726,44.505104 C91.5679726,44.505104 90.8517986,45.732831 89.8286927,46.4490051 C88.8055869,47.1651792 85.7362694,48.188285 85.7362694,48.188285 L83.6900577,54.7361624 C82.9738836,57.0893059 84.7131635,59.4424493 87.1686175,59.4424493 L90.4425562,59.4424493 C92.0795256,59.4424493 93.6141843,59.1355175 95.1488431,58.4193434 C98.11585,56.9869953 101.901342,54.838473 104.970659,51.9737767 C106.403007,50.6437391 107.016871,48.5975274 106.403007,46.7559369 C105.584523,44.3004829 104.049864,42.04965 102.105963,40.3103701 L99.5481982,38.1618478 L99.4458876,31.2047281 C99.4458876,31.2047281 106.607628,29.3631376 106.91456,30.8977964 C109.063083,41.8450288 116.531755,45.8351416 117.145619,46.4490051 C117.145619,46.4490051 117.145619,46.4490051 117.145619,46.4490051 L117.145619,46.4490051 C117.145619,40.0034383 118.168724,33.455561 120.726489,27.5215471 C123.386564,21.382912 122.56808,14.7327241 118.884899,9.61719489 Z" id="Path" fill="#0C0E13" fill-rule="nonzero"></path>
                        <path d="M117.35024,46.244384 L117.35024,46.244384 C117.35024,39.6965066 118.373346,33.2509398 120.93111,27.2146153 C123.386564,21.382912 122.67039,14.6304135 118.884899,9.51488431 L118.884899,9.51488431 C116.122513,5.62708212 112.1324,2.96700693 107.733045,1.63696934 C103.845243,0.51155292 99.5481982,0.818484672 96.0696383,2.76238577 C95.7627066,2.96700693 95.4557748,3.06931752 95.2511537,3.27393869 C95.2511537,3.27393869 96.0696383,2.25083285 97.3996759,1.22772701 L96.9904336,1.33003759 C91.8749044,2.14852226 87.3732387,5.01321861 84.5085424,9.31026314 C82.1553989,12.788823 81.8484672,17.1881781 83.5877471,21.0759803 L83.5877471,21.1782909 C83.7923683,21.5875332 84.6108529,20.7690485 85.1224059,20.4621168" id="Path" stroke="#FFFFFF" stroke-width="0.5" stroke-linecap="round" stroke-linejoin="round"></path>
                        <path d="M85.6339588,48.0859745 L83.8946789,54.5315413 C83.1785048,56.8846847 84.9177847,59.2378281 87.3732387,59.2378281 L90.6471774,59.2378281 C92.2841467,59.2378281 93.8188055,58.8285858 95.3534643,58.2147223 C97.2973654,57.3962376 99.6505088,56.2708212 101.799031,54.7361624" id="Path" stroke="#FFFFFF" stroke-width="0.5" stroke-linecap="round" stroke-linejoin="round"></path>
                        <path d="M84.8154741,41.5380971 C84.5085424,41.8450288 84.2016106,42.5612029 84.0993,42.9704453 L83.6900577,44.7097252 L85.0200953,44.6074146" id="Path" stroke="#FFFFFF" stroke-width="0.5" stroke-linecap="round" stroke-linejoin="round"></path>
                        <g id="Group" transform="translate(99.241266, 24.554540)">
                            <path d="M9.20795256,8.08253613 C8.59408905,11.4587854 6.13863504,13.9142394 3.58087044,13.5049971 C1.02310584,13.0957547 -0.204621168,10.0264372 0.102310584,6.54787737 C0.409242336,3.1716281 2.76238577,0.613863504 5.32015037,1.02310584 C7.87791497,1.53465876 9.82181606,4.70628686 9.20795256,8.08253613 Z" id="Path" fill="#FFFFFF" fill-rule="nonzero"></path>
                            <path d="M6.65018796,5.32015037 C4.19473394,4.50166569 3.06931752,6.44556679 3.06931752,6.44556679 C3.06931752,6.44556679 5.62708212,6.54787737 5.42246095,8.2871573 C5.21783978,10.0264372 3.58087044,10.333369 3.58087044,10.333369" id="Path" stroke="#0C0E13" stroke-width="0.5" stroke-linecap="round" stroke-linejoin="round"></path>
                        </g>
                        <g id="Group" transform="translate(259.868883, 28.646964)" fill-rule="nonzero">
                            <path d="M17.0858675,25.1684037 C17.0858675,25.1684037 17.0858675,28.8515847 10.1287478,29.5677588 C2.66007518,30.3862434 1.43234818,26.0891989 1.43234818,26.0891989 L0,1.84159051 L15.5512088,0.920795256 L17.0858675,25.1684037 Z" id="Path" fill="#FFFFFF"></path>
                            <path d="M1.22772701,20.0528745 L1.02310584,15.5512088 L9.92412664,10.5379901 C9.92412664,10.6403007 8.38946789,18.2112839 1.22772701,20.0528745 Z" id="Path" fill="#0C0E13"></path>
                        </g>
                        <path d="M249.637825,19.3367004 C249.637825,19.3367004 248.307787,38.1618478 252.093279,42.6635135 C255.87877,47.1651792 264.063617,47.6767321 270.611495,41.7427183 C278.182478,34.7855985 277.773235,24.0429872 277.773235,24.0429872 L276.954751,19.9505639 C275.522403,12.8911336 269.076836,8.18484672 261.915095,8.9010208 L257.004187,9.41257372 C257.004187,9.41257372 249.740135,9.82181606 249.637825,19.3367004 Z" id="Path" fill="#FFFFFF" fill-rule="nonzero"></path>
                        <path d="M249.842446,21.9967756 C249.842446,21.9967756 252.093279,20.4621168 254.548733,21.2806015" id="Path" stroke="#0C0E13" stroke-linecap="round" stroke-linejoin="round"></path>
                        <path d="M250.251688,25.7822672 C250.251688,25.7822672 251.172484,24.5545402 253.116385,25.7822672" id="Path" stroke="#0C0E13" stroke-width="0.5" stroke-linecap="round" stroke-linejoin="round"></path>
                        <path d="M257.720361,25.7822672 C257.720361,25.7822672 259.152709,24.349919 260.789679,25.9868883" id="Path" stroke="#0C0E13" stroke-width="0.5" stroke-linecap="round" stroke-linejoin="round"></path>
                        <path d="M263.347443,22.2013967 C263.347443,22.2013967 260.9943,20.4621168 258.231914,21.0759803" id="Path" stroke="#0C0E13" stroke-linecap="round" stroke-linejoin="round"></path>
                        <ellipse id="Oval" fill="#0C0E13" fill-rule="nonzero" cx="251.070173" cy="26.805373" rx="1.33003759" ry="1.53465876"></ellipse>
                        <ellipse id="Oval" fill="#0C0E13" fill-rule="nonzero" cx="258.538846" cy="26.6007518" rx="1.22772701" ry="1.43234818"></ellipse>
                        <path d="M254.855665,22.4060179 C254.855665,22.4060179 254.855665,25.3730248 254.03718,27.9307894 C253.218695,30.3862434 252.604832,32.7393869 254.344112,33.0463186 C256.083392,33.3532504 257.822672,32.6370763 257.822672,32.6370763" id="Path" stroke="#0C0E13" stroke-width="0.5" stroke-linecap="round" stroke-linejoin="round"></path>
                        <path d="M261.198921,36.8318102 C256.288013,38.2641584 254.03718,37.138742 254.03718,37.138742 C254.03718,37.138742 254.344112,39.9011277 257.413429,39.7988172 C260.789679,39.7988172 261.198921,36.8318102 261.198921,36.8318102 Z" id="Path" stroke="#0C0E13" stroke-width="0.5" stroke-linecap="round" stroke-linejoin="round"></path>
                        <path d="M277.773235,7.16174088 C273.783123,0.920795256 266.723692,1.02310584 262.017406,1.73927993 C252.911764,3.1716281 248.410098,8.18484672 247.386992,12.1749595 C246.056954,17.3927993 246.056954,23.7360555 249.433204,28.3400318 C249.433204,28.3400318 249.535514,22.7129496 249.637825,20.3598062 C249.637825,20.0528745 249.637825,19.7459427 249.740135,19.3367004 C251.581726,19.1320792 254.446422,18.5182157 257.208808,17.4951099 L254.446422,18.927458 C254.446422,18.927458 259.971194,19.7459427 264.47286,17.699731 C264.57517,17.699731 263.040511,18.8251474 262.222027,19.0297686 C262.222027,19.0297686 265.905208,18.8251474 268.462972,17.2904887 C268.462972,17.2904887 268.565283,17.2904887 268.565283,17.2904887 C267.644488,18.4159051 266.416761,19.3367004 265.086723,19.7459427 C265.086723,19.7459427 267.746798,19.5413215 270.099942,18.6205263 C270.202252,18.7228369 270.304563,18.927458 270.304563,19.1320792 C270.304563,20.666738 269.997631,22.4060179 269.076836,23.6337449 C269.076836,23.6337449 269.895321,23.2245026 270.816116,22.2013967 C270.816116,23.5314343 270.713805,24.8614719 270.713805,26.2938201 C270.713805,30.7954858 274.703918,30.6931752 274.703918,30.6931752 C274.192365,28.1354106 274.192365,26.4984412 274.294676,25.4753354 C274.806229,25.8845777 275.317781,26.2938201 276.033956,26.7030624 L276.340887,27.4192365 L275.829334,33.9671139 L276.340887,40.5149913 C277.261683,30.1816223 282.991075,32.3301445 284.525734,18.927458 C285.753461,7.87791497 277.773235,7.16174088 277.773235,7.16174088 Z" id="Path" fill="#0C0E13" fill-rule="nonzero"></path>
                        <path d="M276.238577,40.5149913 C277.159372,30.1816223 282.888765,32.3301445 284.423423,18.927458 C285.753461,7.87791497 277.773235,7.16174088 277.773235,7.05943029 C273.783123,0.818484672 266.416761,0.920795256 260.891989,1.84159051 C250.967862,3.37624927 248.205477,10.0264372 247.284681,12.6865124 C245.545402,17.699731 245.954644,23.7360555 249.433204,28.3400318" id="Path" stroke="#FFFFFF" stroke-width="0.5" stroke-linecap="round" stroke-linejoin="round"></path>
                        <g id="Group" transform="translate(272.146153, 20.462117)">
                            <path d="M0.920795256,3.47855985 C0.920795256,3.47855985 1.33003759,-0.306931752 5.21783978,0.409242336 C9.10564197,1.12541642 9.31026314,10.4356796 3.1716281,11.4587854 L3.1716281,11.4587854 C1.63696934,11.0495431 0.613863504,9.61719489 0.716174088,7.98022555 L0.920795256,3.47855985 Z" id="Path" fill="#FFFFFF" fill-rule="nonzero"></path>
                            <circle id="Oval" fill="#3821D1" fill-rule="nonzero" cx="2.14852226" cy="11.561096" r="1.12541642"></circle>
                            <path d="M5.62708212,3.78549161 C3.47855985,2.96700693 2.45545402,4.70628686 2.45545402,4.70628686 C2.45545402,4.70628686 4.70628686,4.91090803 4.50166569,6.34325621 C4.29704453,7.87791497 2.76238577,8.18484672 2.76238577,8.18484672" id="Path" stroke="#0C0E13" stroke-width="0.5" stroke-linecap="round" stroke-linejoin="round"></path>
                        </g>
                        <path d="M288.515847,116.327134 L262.222027,116.531755 C261.403542,116.531755 260.687368,116.020202 260.380436,115.304028 L249.228583,84.3039212 C249.023961,83.5877471 249.535514,82.871573 250.251688,82.871573 L276.545508,82.6669518 C277.363993,82.6669518 278.080167,83.1785048 278.387099,83.8946789 L289.538953,114.894786 C289.743574,115.61096 289.232021,116.327134 288.515847,116.327134 Z" id="Path" stroke="#FFFFFF" stroke-width="0.5" fill="#3821D1" fill-rule="nonzero" stroke-linecap="round" stroke-linejoin="round"></path>
                        <g id="Group" transform="translate(223.037073, 94.125737)">
                            <g transform="translate(22.508328, 0.000000)" fill="#FFFFFF" fill-rule="nonzero" id="Path">
                                <path d="M0.51155292,4.70628686 C0.51155292,4.70628686 4.29704453,0.818484672 7.57098321,0.716174088 L8.59408905,3.37624927 L12.8911336,2.66007518 L17.2904887,12.5842018 L6.85480913,14.4257923 L0.51155292,4.70628686 Z"></path>
                                <path d="M11.2541642,5.32015037 L21.1782909,3.1716281 C21.6898438,2.96700693 21.9967756,2.45545402 21.894465,1.9439011 L21.894465,1.9439011 C21.7921544,1.43234818 21.1782909,1.12541642 20.666738,1.22772701 L10.4356796,3.06931752 L11.2541642,5.32015037 Z"></path>
                                <path d="M12.6865124,8.08253613 L22.7129496,6.54787737 C23.2245026,6.44556679 23.6337449,5.83170329 23.4291237,5.32015037 L23.4291237,5.32015037 C23.3268131,4.80859745 22.8152602,4.39935511 22.2013967,4.50166569 L11.8680277,5.7293927 L12.6865124,8.08253613 Z"></path>
                                <path d="M12.5842018,10.2310584 L22.7129496,10.1287478 C23.2245026,10.0264372 23.7360555,9.61719489 23.6337449,9.00333139 L23.6337449,9.00333139 C23.6337449,8.49177847 23.122192,8.08253613 22.6106391,8.08253613 L12.1749595,7.87791497 L12.5842018,10.2310584 Z"></path>
                                <path d="M12.1749595,12.4818912 C14.8350347,12.3795807 21.9967756,13.8119288 21.9967756,13.8119288 C23.4291237,14.01655 23.6337449,12.3795807 22.4060179,11.9703383 C22.4060179,11.9703383 16.8812464,9.71950548 12.0726489,10.5379901 C11.561096,10.5379901 11.561096,12.4818912 12.1749595,12.4818912 Z"></path>
                            </g>
                            <g transform="translate(0.000000, 2.046212)" id="Path">
                                <path d="M1.59518971,20.9548179 C-0.643116867,17.1442451 0.781260045,12.2306116 4.74916716,10.1247688 L24.6021627,0.69375203 L31.2153412,11.9249141 L12.7867226,23.6623302 C8.92055668,26.0690078 3.83349628,24.865669 1.59518971,20.9548179 Z" fill="#3821D1" fill-rule="nonzero"></path>
                                <line x1="20.8713591" y1="2.66007518" x2="8.2871573" y2="9.00333139" stroke="#FFFFFF" stroke-width="0.5" stroke-linecap="round" stroke-linejoin="round"></line>
                            </g>
                        </g>
                    </g>
                </g>
            </g>
        </g>
    </g>
</svg>