<svg xmlns="http://www.w3.org/2000/svg" width="111" height="11" viewBox="0 0 111 11">
    <g fill="#FFF" fill-rule="nonzero">
        <path d="M3.382 0H0v10.08h1.464V6.566h1.902c1.72 0 3.114-1.47 3.114-3.283S5.086 0 3.366 0h.016zm0 5.04H1.464V1.52h1.902c.445-.015.877.168 1.188.504.312.337.476.796.45 1.265.022.464-.14.916-.448 1.248a1.544 1.544 0 0 1-1.174.503zM18.135 3.156C18.132 1.415 16.7.003 14.93 0H10.8v10.08h1.573V6.301h2.264l2.246 3.779h1.837l-2.45-4.078a3.154 3.154 0 0 0 1.865-2.846zm-5.762-1.635h2.545a1.641 1.641 0 0 1 1.557 1.627c0 .862-.683 1.576-1.557 1.627h-2.545V1.521zM25.92 0a5.04 5.04 0 1 0 5.04 5.04A4.99 4.99 0 0 0 25.92 0zm0 8.59a3.55 3.55 0 1 1 3.522-3.55 3.5 3.5 0 0 1-3.522 3.545v.005zM44.565 6.91a3.192 3.192 0 0 1-2.842 1.68 3.353 3.353 0 0 1-2.511-1.001 3.467 3.467 0 0 1-.993-2.549 3.467 3.467 0 0 1 .993-2.549 3.353 3.353 0 0 1 2.51-1c1.161-.02 2.24.602 2.821 1.623l.198.38 1.317-.766-.204-.364A4.717 4.717 0 0 0 41.717.002a4.828 4.828 0 0 0-3.557 1.434 4.99 4.99 0 0 0-1.44 3.604 4.99 4.99 0 0 0 1.44 3.604 4.828 4.828 0 0 0 3.557 1.434 4.707 4.707 0 0 0 4.165-2.407l.198-.364-1.317-.767-.198.37zM57.004 3.156C57.001 1.415 55.57.003 53.804 0H49.68v10.08h1.583V6.301h2.26l2.243 3.779H57.6l-2.447-4.078a3.154 3.154 0 0 0 1.851-2.846zm-5.741-1.635h2.54a1.64 1.64 0 0 1 1.555 1.627 1.64 1.64 0 0 1-1.554 1.627h-2.541V1.521zM62.124 5.76h4.419V4.24h-4.419V1.52h4.763V0H60.48v10.08h6.48V8.554h-4.836zM73.128 0L69.12 10.08h1.703l.914-2.344h4.126l.914 2.344h1.703L74.472 0h-1.344zm-.784 6.238l1.462-3.72 1.456 3.72h-2.918zM79.92 1.52h2.832v8.56h1.536V1.52h2.832V0h-7.2zM94.32 0a5.04 5.04 0 1 0 5.04 5.04A4.99 4.99 0 0 0 94.32 0zm0 8.59a3.55 3.55 0 1 1 3.522-3.55 3.5 3.5 0 0 1-3.522 3.545v.005zM108.433 6.002a3.133 3.133 0 0 0 1.78-3.538c-.325-1.445-1.628-2.471-3.13-2.464h-4.123v10.08h1.583V6.301h2.26l2.243 3.779h1.834l-2.447-4.078zm-3.89-4.481h2.54a1.64 1.64 0 0 1 1.555 1.627 1.64 1.64 0 0 1-1.554 1.627h-2.541V1.521z"/>
    </g>
</svg>
